<svg id="Capa_1" data-name="Capa 1" xmlns="http://www.w3.org/2000/svg" viewBox="0 0 1920 1080"><defs><style>.cls-1{fill:#e4e4e4;}.cls-2{fill:#66d7de;}.cls-3{fill:#003a70;}</style></defs><rect class="cls-1" y="0.02" width="1920" height="1079.96"/><circle class="cls-2" cx="654.69" cy="538.7" r="31.26"/><circle class="cls-2" cx="565.57" cy="627.81" r="31.26"/><path class="cls-2" d="M543.47,560.11a31.26,31.26,0,1,0,44.21-44.21h0a31.26,31.26,0,0,1,0-44.21h0a31.26,31.26,0,1,0-44.21,0,31.26,31.26,0,0,1-44.21,44.21,31.26,31.26,0,1,0,0,44.21h0a31.26,31.26,0,0,1,44.21,0"/><path class="cls-3" d="M763.39,521.64V428.47h32.29a49,49,0,0,1,19.62,3.68,40,40,0,0,1,14.1,10,41.71,41.71,0,0,1,8.47,14.76,56.78,56.78,0,0,1,2.82,18.05,55.55,55.55,0,0,1-3.15,19.22,41.22,41.22,0,0,1-9.06,14.7,40.49,40.49,0,0,1-14.23,9.45,49.48,49.48,0,0,1-18.57,3.34Zm65.36-46.71a46.56,46.56,0,0,0-2.17-14.5,31.09,31.09,0,0,0-6.43-11.35,30.08,30.08,0,0,0-10.43-7.42,34.88,34.88,0,0,0-14-2.69H775.21v72.18h20.47a34.89,34.89,0,0,0,14.24-2.76,28.5,28.5,0,0,0,10.36-7.61,33.44,33.44,0,0,0,6.3-11.48A46.14,46.14,0,0,0,828.75,474.93Z"/><path class="cls-3" d="M855.51,440.28V425.85h11.55v14.43Zm0,81.36v-68.5h11.55v68.5Z"/><path class="cls-3" d="M903.28,523a24.67,24.67,0,0,1-9-1.64,22.68,22.68,0,0,1-7.29-4.53,21.34,21.34,0,0,1-4.85-6.76,20.1,20.1,0,0,1-1.77-8.46,17.63,17.63,0,0,1,2.1-8.6,19.38,19.38,0,0,1,6-6.63,31,31,0,0,1,9.18-4.33,40.81,40.81,0,0,1,11.62-1.57,57.31,57.31,0,0,1,10.1.92,46.64,46.64,0,0,1,9.06,2.49v-5.51q0-8.4-4.73-13.19t-13.38-4.79q-10.38,0-21.79,8l-3.8-7.48Q897.9,452,911.29,452t21.06,7.22q7.54,7.21,7.54,20.34v28c0,2.71,1.23,4.12,3.68,4.2v10c-1.23.18-2.23.31-3,.4a24.66,24.66,0,0,1-2.49.13,7.39,7.39,0,0,1-5.45-2,8.36,8.36,0,0,1-2.43-4.93l-.26-4.85a29.59,29.59,0,0,1-11.61,9.38A35.75,35.75,0,0,1,903.28,523Zm3-8.66a28.64,28.64,0,0,0,11.48-2.3,18.92,18.92,0,0,0,8.07-6.1,7.31,7.31,0,0,0,2.5-5.12V490.67a47.73,47.73,0,0,0-17.46-3.28c-5.77,0-10.48,1.23-14.1,3.68s-5.45,5.64-5.45,9.58a12.84,12.84,0,0,0,4.26,9.71,15.1,15.1,0,0,0,4.79,2.89A16.48,16.48,0,0,0,906.3,514.3Z"/><path class="cls-3" d="M985.69,522.43a28.36,28.36,0,0,1-12.79-2.89,31.41,31.41,0,0,1-10-7.74,35.12,35.12,0,0,1-6.5-11.15,38.07,38.07,0,0,1-2.3-13.12,40.91,40.91,0,0,1,2.3-13.72,34.81,34.81,0,0,1,6.5-11.35,31,31,0,0,1,10-7.68A29.31,29.31,0,0,1,985.82,452a26.35,26.35,0,0,1,15,4.2,38.55,38.55,0,0,1,10.63,10.63V453.14h10.24v67.72a28.77,28.77,0,0,1-2.76,12.92,27.63,27.63,0,0,1-7.48,9.39,33.14,33.14,0,0,1-11.09,5.77,45.78,45.78,0,0,1-13.58,2q-11.68,0-19-4a35,35,0,0,1-12.14-11.09l6.69-5.91a25.65,25.65,0,0,0,10.5,9.06,32.32,32.32,0,0,0,13.91,3,30.26,30.26,0,0,0,9-1.31,21.23,21.23,0,0,0,7.41-3.93,19.51,19.51,0,0,0,5.06-6.57,21.3,21.3,0,0,0,1.9-9.31V508.78a29.56,29.56,0,0,1-10.5,10,27.81,27.81,0,0,1-6.69,2.69A28.82,28.82,0,0,1,985.69,522.43Zm3.54-9.45a19.5,19.5,0,0,0,7.09-1.31,25.82,25.82,0,0,0,6.3-3.48,22.37,22.37,0,0,0,4.85-4.92,15.59,15.59,0,0,0,2.63-5.64V478a26.1,26.1,0,0,0-3.74-6.43,28.49,28.49,0,0,0-5.18-5.06,23.22,23.22,0,0,0-6.24-3.34,20.1,20.1,0,0,0-6.76-1.18,19.41,19.41,0,0,0-9.38,2.23,22.22,22.22,0,0,0-7,5.9,27.69,27.69,0,0,0-4.46,8.33,29.19,29.19,0,0,0-1.58,9.39,26.22,26.22,0,0,0,6.83,17.71A24.13,24.13,0,0,0,980,511,21.15,21.15,0,0,0,989.23,513Z"/><path class="cls-3" d="M1099.72,521.64h-11.54V483.33q0-11-3.35-16t-10.17-5a19.46,19.46,0,0,0-7.09,1.38,28,28,0,0,0-6.69,3.74,25.66,25.66,0,0,0-5.51,5.64,24,24,0,0,0-3.54,7.22v41.33h-11.55v-68.5h10.5v14.7a30.12,30.12,0,0,1,11.74-11.55,33.57,33.57,0,0,1,16.73-4.33,20.19,20.19,0,0,1,9.85,2.17,16.62,16.62,0,0,1,6.29,6,27,27,0,0,1,3.35,9.12,61.76,61.76,0,0,1,1,11.42Z"/><path class="cls-3" d="M1147.62,523a33.67,33.67,0,0,1-25-10.63,35,35,0,0,1-7-11.29,37.06,37.06,0,0,1-2.49-13.51,36.52,36.52,0,0,1,2.56-13.65,35.81,35.81,0,0,1,7.08-11.29,34.39,34.39,0,0,1,49.87,0,35.83,35.83,0,0,1,7.09,11.29,37.71,37.71,0,0,1,.06,27.16,34.27,34.27,0,0,1-7.08,11.29,34.71,34.71,0,0,1-11,7.74A33.84,33.84,0,0,1,1147.62,523Zm-22.7-35.3a27.47,27.47,0,0,0,1.77,10,25.34,25.34,0,0,0,4.86,8,22.78,22.78,0,0,0,7.21,5.38,20.91,20.91,0,0,0,17.72,0,23.09,23.09,0,0,0,7.28-5.44,25.43,25.43,0,0,0,4.92-8.14,27.79,27.79,0,0,0,1.78-10,27.42,27.42,0,0,0-1.78-9.9,25.43,25.43,0,0,0-4.92-8.14,23.27,23.27,0,0,0-7.28-5.45,20.39,20.39,0,0,0-8.86-2,19.76,19.76,0,0,0-8.86,2,23.33,23.33,0,0,0-7.21,5.51,26,26,0,0,0-4.86,8.14A28,28,0,0,0,1124.92,487.66Zm24.67-45.93L1142,439.1l7.61-13.25h11.55Z"/><path class="cls-3" d="M1220.32,523a53.33,53.33,0,0,1-16.27-2.56,40.11,40.11,0,0,1-13.78-7.42l5-7.74a48.62,48.62,0,0,0,12.07,6.89,35.51,35.51,0,0,0,12.73,2.3c5,0,8.94-1,11.88-3a9.44,9.44,0,0,0,4.39-8.33,7.48,7.48,0,0,0-1.18-4.26,10.06,10.06,0,0,0-3.54-3.09,29.38,29.38,0,0,0-6-2.36q-3.67-1.05-8.53-2.23-6.16-1.57-10.63-3a29,29,0,0,1-7.35-3.41,12,12,0,0,1-4.2-4.72,15.94,15.94,0,0,1-1.31-6.83,19.81,19.81,0,0,1,2-9.12,19.11,19.11,0,0,1,5.57-6.69,25.15,25.15,0,0,1,8.34-4.07,37,37,0,0,1,10.3-1.38,40.82,40.82,0,0,1,14.43,2.5,35.63,35.63,0,0,1,11.29,6.56l-5.25,7a29.73,29.73,0,0,0-9.71-5.71,33.06,33.06,0,0,0-11-1.9,20.15,20.15,0,0,0-10.69,2.69q-4.39,2.7-4.4,8.6a8.16,8.16,0,0,0,.86,3.93,7.41,7.41,0,0,0,2.82,2.76,21.88,21.88,0,0,0,5.05,2.1c2,.61,4.53,1.27,7.41,2q6.83,1.57,11.88,3.21a34.66,34.66,0,0,1,8.4,3.87,15,15,0,0,1,5,5.25,15.26,15.26,0,0,1,1.64,7.35,18.18,18.18,0,0,1-7.35,15.22Q1232.79,523,1220.32,523Z"/><path class="cls-3" d="M1296.56,518.23c-.7.35-1.62.77-2.75,1.25s-2.43,1-3.87,1.44a33.35,33.35,0,0,1-4.73,1.18,29.64,29.64,0,0,1-5.31.46,17.56,17.56,0,0,1-10.89-3.47q-4.6-3.48-4.6-10.83V462.2h-9.31v-9.06h9.31V430.31H1276v22.83h15.35v9.06H1276v42.52q.27,3.79,2.49,5.51a8.39,8.39,0,0,0,5.25,1.7,16.94,16.94,0,0,0,6.24-1.11,27.65,27.65,0,0,0,3.87-1.77Z"/><path class="cls-3" d="M1307.32,440.28V425.85h11.55v14.43Zm0,81.36v-68.5h11.55v68.5Z"/><path class="cls-3" d="M1332.91,487.26a37.49,37.49,0,0,1,2.49-13.65,33.84,33.84,0,0,1,7.09-11.22,34.3,34.3,0,0,1,11-7.61,34.77,34.77,0,0,1,14.24-2.82,33.22,33.22,0,0,1,17.65,4.53,29.47,29.47,0,0,1,11.22,12.14l-11.29,3.54a18.78,18.78,0,0,0-7.35-7.54,20.78,20.78,0,0,0-10.5-2.69,21.47,21.47,0,0,0-16.14,7.21,26.29,26.29,0,0,0-4.79,8,27.86,27.86,0,0,0-1.77,10.1,27.54,27.54,0,0,0,1.84,10.11,26.77,26.77,0,0,0,4.92,8.2,22.31,22.31,0,0,0,7.22,5.44,20.22,20.22,0,0,0,8.86,2,21.37,21.37,0,0,0,6-.85,22.84,22.84,0,0,0,5.38-2.3,20.24,20.24,0,0,0,4.26-3.34,11.44,11.44,0,0,0,2.63-4.14l11.28,3.42a24.36,24.36,0,0,1-4.39,7,27.87,27.87,0,0,1-6.63,5.38,36.5,36.5,0,0,1-18.24,4.86,34.25,34.25,0,0,1-25.2-10.63,35.13,35.13,0,0,1-7.15-11.35A37,37,0,0,1,1332.91,487.26Z"/><path class="cls-3" d="M1439.47,523a33.62,33.62,0,0,1-25-10.63,34.78,34.78,0,0,1-7-11.29,37.71,37.71,0,0,1,.06-27.16,35.83,35.83,0,0,1,7.09-11.29,33.86,33.86,0,0,1,10.89-7.74,33.5,33.5,0,0,1,14-2.89,33.93,33.93,0,0,1,25,10.63,35.81,35.81,0,0,1,7.08,11.29,36.52,36.52,0,0,1,2.56,13.65,37.06,37.06,0,0,1-2.49,13.51,34.07,34.07,0,0,1-18,19A33.79,33.79,0,0,1,1439.47,523Zm-22.71-35.3a27.47,27.47,0,0,0,1.78,10,25.5,25.5,0,0,0,4.85,8,22.82,22.82,0,0,0,7.22,5.38,20.89,20.89,0,0,0,17.71,0,23.13,23.13,0,0,0,7.29-5.44,25.43,25.43,0,0,0,4.92-8.14,28,28,0,0,0,1.77-10,27.63,27.63,0,0,0-1.77-9.9,25.43,25.43,0,0,0-4.92-8.14,23.31,23.31,0,0,0-7.29-5.45,20.31,20.31,0,0,0-8.85-2,19.73,19.73,0,0,0-8.86,2,23.37,23.37,0,0,0-7.22,5.51,26.19,26.19,0,0,0-4.85,8.14A28,28,0,0,0,1416.76,487.66Z"/><path class="cls-3" d="M834.91,609.85a22.32,22.32,0,0,1-2.16,9.84,23,23,0,0,1-5.91,7.61,26.87,26.87,0,0,1-8.66,4.85,32,32,0,0,1-10.56,1.71H763.39V540.69h46.33a18.38,18.38,0,0,1,8.79,2.1,21.91,21.91,0,0,1,6.69,5.44,25,25,0,0,1,4.27,7.62,25.7,25.7,0,0,1,1.51,8.59,24.88,24.88,0,0,1-3.48,12.86,21.28,21.28,0,0,1-9.91,8.79,23.48,23.48,0,0,1,12.67,8.73A24.77,24.77,0,0,1,834.91,609.85Zm-59.7-58.93V582h29.65a13.33,13.33,0,0,0,5.78-1.25,14.33,14.33,0,0,0,4.52-3.35,15.93,15.93,0,0,0,3-4.92,16.16,16.16,0,0,0,1.12-6,18,18,0,0,0-1-6.17,16.31,16.31,0,0,0-2.82-5,12.32,12.32,0,0,0-4.33-3.28,12.86,12.86,0,0,0-5.45-1.19ZM823,607.75a17.25,17.25,0,0,0-1.11-6.11,17.59,17.59,0,0,0-3-5.18,14.2,14.2,0,0,0-4.53-3.54,12.65,12.65,0,0,0-5.77-1.32H775.21v32h32.41a13.83,13.83,0,0,0,6-1.31,16.59,16.59,0,0,0,4.85-3.48A16,16,0,0,0,823,607.75Z"/><path class="cls-3" d="M849.61,552.5V538.06h11.55V552.5Zm0,81.36v-68.5h11.55v68.5Z"/><path class="cls-3" d="M909.71,635.17a33.52,33.52,0,0,1-25-10.63,34.63,34.63,0,0,1-7-11.28,37.11,37.11,0,0,1-2.49-13.52,36.52,36.52,0,0,1,2.56-13.65,35.87,35.87,0,0,1,7.08-11.28,34.39,34.39,0,0,1,49.87,0,35.9,35.9,0,0,1,7.09,11.28,36.72,36.72,0,0,1,2.56,13.65,37.12,37.12,0,0,1-2.5,13.52,34.12,34.12,0,0,1-7.08,11.28,34.74,34.74,0,0,1-11,7.75A33.87,33.87,0,0,1,909.71,635.17ZM887,599.87a27.56,27.56,0,0,0,1.77,10,25.34,25.34,0,0,0,4.86,8,22.78,22.78,0,0,0,7.21,5.38,20.91,20.91,0,0,0,17.72,0,23.12,23.12,0,0,0,7.28-5.45,25.38,25.38,0,0,0,4.92-8.13,28,28,0,0,0,1.77-10,27.69,27.69,0,0,0-1.77-9.91,25.38,25.38,0,0,0-4.92-8.13,23.12,23.12,0,0,0-7.28-5.45,20.4,20.4,0,0,0-8.86-2,19.77,19.77,0,0,0-8.86,2,23.18,23.18,0,0,0-7.21,5.51,26.09,26.09,0,0,0-4.86,8.13A28.08,28.08,0,0,0,887,599.87Z"/><path class="cls-3" d="M984.64,635.17a27,27,0,0,1-12.46-2.88,30.63,30.63,0,0,1-9.72-7.81,36.25,36.25,0,0,1-6.29-11.35,40.93,40.93,0,0,1-2.24-13.52,37.5,37.5,0,0,1,2.5-13.65,35.82,35.82,0,0,1,6.89-11.28,32.8,32.8,0,0,1,10.3-7.68,29.17,29.17,0,0,1,12.73-2.82,27.71,27.71,0,0,1,14.56,3.94,29.71,29.71,0,0,1,10.37,10.23v-13h10.24v81.75q0,4.08,3.67,4.2v10a50.24,50.24,0,0,1-6.17.39,8.7,8.7,0,0,1-6.36-2.69,8.82,8.82,0,0,1-2.69-6.5V620.34Q1000.52,635.17,984.64,635.17Zm3.94-10a19.56,19.56,0,0,0,12.66-4.27A34.8,34.8,0,0,0,1010,610.5V590.82a17.39,17.39,0,0,0-2.76-6.37,22.55,22.55,0,0,0-5.05-5.31,27.24,27.24,0,0,0-6.43-3.61,18.56,18.56,0,0,0-6.89-1.38,20,20,0,0,0-9.32,2.17,24,24,0,0,0-7.28,5.77,26.76,26.76,0,0,0-4.79,8.27,27.38,27.38,0,0,0-1.7,9.51,28.18,28.18,0,0,0,1.7,9.78,25,25,0,0,0,4.73,8.07,22.55,22.55,0,0,0,7.21,5.44A20.74,20.74,0,0,0,988.58,625.2Z"/><path class="cls-3" d="M1061.28,635.17q-10.77,0-16.28-7.21t-5.51-21.53V565.36H1051V604.2q0,21,14.57,21a22.27,22.27,0,0,0,13.32-4.53,26.72,26.72,0,0,0,9.25-12.4V565.36h11.55v54.33q0,4.06,3.67,4.2v10c-1.31.17-2.34.28-3.08.33s-1.47.06-2.17.06a8.28,8.28,0,0,1-5.71-2,6.88,6.88,0,0,1-2.42-5.05l-.27-8A31.7,31.7,0,0,1,1077.68,631,33.4,33.4,0,0,1,1061.28,635.17Z"/><path class="cls-3" d="M1119,633.86v-68.5h11.54v68.5Zm7.74-79.92-7.61-2.62,7.61-13.26h11.55Z"/><path class="cls-3" d="M1252.47,633.86h-11.54V595.54q0-10.75-3.48-15.88t-10.3-5.11a18.35,18.35,0,0,0-12.67,5.05,27.82,27.82,0,0,0-7.94,13.06v41.2H1195V595.54q0-11-3.42-16t-10.23-5a18.69,18.69,0,0,0-12.6,4.92,26.69,26.69,0,0,0-8,13v41.34H1149.2v-68.5h10.5v14.7a31,31,0,0,1,10.89-11.75,28.17,28.17,0,0,1,15.09-4.13q8.65,0,13.71,4.66a20.15,20.15,0,0,1,6.24,12q9.18-16.67,26.11-16.66a20.66,20.66,0,0,1,9.91,2.16,16.56,16.56,0,0,1,6.36,6,27.73,27.73,0,0,1,3.41,9.12,58.29,58.29,0,0,1,1,11.42Z"/><path class="cls-3" d="M1270.45,552.5V538.06H1282V552.5Zm0,81.36v-68.5H1282v68.5Z"/><path class="cls-3" d="M1296,599.48a37.49,37.49,0,0,1,2.49-13.65,33.68,33.68,0,0,1,7.09-11.22,34.14,34.14,0,0,1,11-7.61,34.76,34.76,0,0,1,14.23-2.82,33.18,33.18,0,0,1,17.65,4.53,29.34,29.34,0,0,1,11.23,12.13l-11.29,3.55a18.81,18.81,0,0,0-7.35-7.55,20.88,20.88,0,0,0-10.5-2.69,21.43,21.43,0,0,0-16.14,7.22,26.24,26.24,0,0,0-4.79,8,27.92,27.92,0,0,0-1.77,10.11,27.49,27.49,0,0,0,1.84,10.1,26.65,26.65,0,0,0,4.92,8.2,22.34,22.34,0,0,0,7.22,5.45,20.32,20.32,0,0,0,8.85,2,21.32,21.32,0,0,0,6-.85,22.9,22.9,0,0,0,5.38-2.3,20.35,20.35,0,0,0,4.27-3.35,11.29,11.29,0,0,0,2.62-4.13l11.29,3.41a24.3,24.3,0,0,1-4.4,7,27.62,27.62,0,0,1-6.62,5.38,35.6,35.6,0,0,1-8.47,3.54,36,36,0,0,1-9.77,1.31,34.11,34.11,0,0,1-25.2-10.63,34.85,34.85,0,0,1-7.15-11.35A37,37,0,0,1,1296,599.48Z"/><path class="cls-3" d="M1402.6,635.17a33.52,33.52,0,0,1-25-10.63,34.63,34.63,0,0,1-7-11.28,37.74,37.74,0,0,1,.06-27.17,35.9,35.9,0,0,1,7.09-11.28,34.37,34.37,0,0,1,49.86,0,35.9,35.9,0,0,1,7.09,11.28,36.52,36.52,0,0,1,2.56,13.65,37.11,37.11,0,0,1-2.49,13.52,34.15,34.15,0,0,1-18,19A33.79,33.79,0,0,1,1402.6,635.17Zm-22.71-35.3a27.56,27.56,0,0,0,1.77,10,25.52,25.52,0,0,0,4.86,8,22.71,22.71,0,0,0,7.22,5.38,20.89,20.89,0,0,0,17.71,0,23.16,23.16,0,0,0,7.29-5.45,25.38,25.38,0,0,0,4.92-8.13,28,28,0,0,0,1.77-10,27.69,27.69,0,0,0-1.77-9.91,25.38,25.38,0,0,0-4.92-8.13,23.16,23.16,0,0,0-7.29-5.45,20.32,20.32,0,0,0-8.85-2,19.74,19.74,0,0,0-8.86,2,23.1,23.1,0,0,0-7.22,5.51,26.28,26.28,0,0,0-4.86,8.13A28.08,28.08,0,0,0,1379.89,599.87Z"/></svg>