<?xml version="1.0" encoding="utf-8"?>
<!-- Generator: Adobe Illustrator 23.0.1, SVG Export Plug-In . SVG Version: 6.00 Build 0)  -->
<svg version="1.1" id="Capa_1" xmlns="http://www.w3.org/2000/svg" xmlns:xlink="http://www.w3.org/1999/xlink" x="0px" y="0px"
	 viewBox="0 0 475.1 476.4" style="enable-background:new 0 0 475.1 476.4;" xml:space="preserve">
<style type="text/css">
	.st0{fill:#003A70;}
</style>
<circle class="st0" cx="413.2" cy="238.2" r="61.9"/>
<circle class="st0" cx="236.9" cy="414.6" r="61.9"/>
<path class="st0" d="M193.1,280.6c24.2,24.2,63.3,24.2,87.5,0s24.2-63.3,0-87.5l0,0c-24.2-24.2-24.2-63.3,0-87.5l0,0
	c24.2-24.2,24.2-63.3,0-87.5C256.4-6,217.3-6,193.1,18.1c-24.2,24.2-24.2,63.3,0,87.5c24,24.3,23.7,63.5-0.6,87.5
	c-24.1,23.7-62.8,23.7-86.8,0c-24.2-24.2-63.3-24.2-87.5,0c-24.2,24.2-24.2,63.3,0,87.5s63.3,24.2,87.5,0c0,0,0,0,0,0l0,0
	C129.8,256.4,168.9,256.4,193.1,280.6C193.1,280.6,193.1,280.6,193.1,280.6"/>
</svg>
